#!OML:ASF I:\Actors\actors\Patient Classification 1\Patient 1\Session 1\Subject1.ASF
:FULLY-SPECIFIED
:DEGREES
793
root -0.341982 17.5352 7.76471 6.39683 -6.70672 -7.83113
lowerback 1.39794 2.83544 6.05662
upperback -8.30676 4.23033 0.320336
thorax -9.18123 1.62957 -3.41418
lowerneck -11.1438 3.99359 7.33304
upperneck 33.3218 4.61836 -1.50847
head 13.2703 2.78453 -1.19311
rclavicle -3.40916e-014 -9.54166e-015
rhumerus 16.7449 70.4248 -56.2955
rradius 98.2615
rwrist 41.8636
rhand -19.6214 -31.3894
rfingers 7.12502
rthumb 6.70535 -1141.26
lclavicle -3.40916e-014 -9.54166e-015
lhumerus -54.8196 -17.8316 99.7839
lradius 114.813
lwrist 28.1456
lhand -42.0803 -6.43074
lfingers 7.12502
lthumb -14.9725 23.008
rfemur -0.0152604 23.1113 25.3059
rtibia 1.6907
rfoot -11.8924 -18.2023
rtoes -4.71258
lfemur 14.2788 -44.6547 -22.6231
ltibia -4.7173
lfoot -33.925 56.9969
ltoes 21.4422
794
root -0.344818 17.5354 7.76536 6.44737 -6.83446 -7.86345
lowerback 1.35327 2.8361 5.99253
upperback -8.30609 4.2272 0.370091
thorax -9.16149 1.63587 -3.32289
lowerneck -11.144 4.05498 7.36247
upperneck 33.3056 4.70484 -1.52014
head 13.2698 2.82428 -1.18971
rclavicle -1.71949e-014 -1.19271e-014
rhumerus 15.9417 70.7374 -57.6439
rradius 97.7588
rwrist 41.4873
rhand -18.2547 -32.0628
rfingers 7.12502
rthumb 8.0245 -1141.89
lclavicle -1.71949e-014 -1.19271e-014
lhumerus -55.0235 -17.6708 99.6872
lradius 114.56
lwrist 27.512
lhand -42.2448 -6.60764
lfingers 7.12502
lthumb -15.131 22.8192
rfemur -0.0435103 23.1988 25.3327
rtibia 1.64104
rfoot -11.8464 -18.1529
rtoes -4.70608
lfemur 14.3126 -44.6896 -22.6112
ltibia -4.75887
lfoot -33.9635 57.1718
ltoes 21.3488
795
root -0.347739 17.5357 7.76727 6.48127 -6.96718 -7.88241
lowerback 1.3105 2.83315 5.9936
upperback -8.29463 4.21843 0.362169
thorax -9.12345 1.63275 -3.32811
lowerneck -11.1624 4.13236 7.43991
upperneck 33.3141 4.77913 -1.46642
head 13.284 2.87315 -1.17014
rclavicle 1.00386e-014 2.06736e-014
rhumerus 14.6265 70.9793 -59.6046
rradius 97.2031
rwrist 41.2051
rhand -17.022 -32.8846
rfingers 7.12502
rthumb 9.21407 -1142.66
lclavicle 1.00386e-014 2.06736e-014
lhumerus -55.1783 -17.5937 99.4966
lradius 114.352
lwrist 27.0998
lhand -42.602 -6.55523
lfingers 7.12502
lthumb -15.4751 22.8454
rfemur -0.061145 23.2986 25.3521
rtibia 1.62515
rfoot -11.8675 -18.0822
rtoes -4.50768
lfemur 14.354 -44.6282 -22.5911
ltibia -4.84603
lfoot -34.0846 57.2381
ltoes 21.423
796
root -0.350649 17.5359 7.76917 6.50478 -7.08587 -7.90551
lowerback 1.29542 2.84384 6.04586
upperback -8.29153 4.23161 0.325477
thorax -9.10409 1.63436 -3.39582
lowerneck -11.0858 4.20459 7.5752
upperneck 33.2694 4.85615 -1.46321
head 13.2584 2.92423 -1.18197
rclavicle 5.86415e-015 1.27222e-014
rhumerus 12.7913 71.0934 -62.0922
rradius 96.6952
rwrist 40.9729
rhand -16.1481 -33.5629
rfingers 7.12502
rthumb 10.0573 -1143.3
lclavicle 5.86415e-015 1.27222e-014
lhumerus -55.3288 -17.5541 99.2868
lradius 114.188
lwrist 27.0542
lhand -42.9557 -6.53217
lfingers 7.12502
lthumb -15.8157 22.8418
rfemur -0.0887843 23.3963 25.3859
rtibia 1.66349
rfoot -11.9068 -18.0384
rtoes -4.34097
lfemur 14.3646 -44.5424 -22.5517
ltibia -4.8841
lfoot -34.2701 57.2235
ltoes 21.6637
797
root -0.353127 17.5365 7.77052 6.53527 -7.17562 -7.90399
lowerback 1.28646 2.86274 6.08101
upperback -8.2964 4.25446 0.272083
thorax -9.09588 1.64075 -3.47319
lowerneck -11.1843 4.19065 7.51672
upperneck 33.3304 4.81429 -1.38081
head 13.2995 2.90871 -1.14373
rclavicle 1.33186e-014 3.02153e-014
rhumerus 10.8923 71.1165 -64.5947
rradius 96.2016
rwrist 40.6334
rhand -15.9956 -33.7848
rfingers 7.12502
rthumb 10.2044 -1143.52
lclavicle 1.33186e-014 3.02153e-014
lhumerus -55.4579 -17.5255 99.0885
lradius 114.042
lwrist 27.2613
lhand -43.2368 -6.66806
lfingers 7.12502
lthumb -16.0864 22.6842
rfemur -0.128766 23.4554 25.3781
rtibia 1.67668
rfoot -11.9179 -18.01
rtoes -4.39389
lfemur 14.3612 -44.5695 -22.5709
ltibia -4.85224
lfoot -34.4971 57.2717
ltoes 21.8134
